<?xml version="1.0" encoding="UTF-8" standalone="no"?>
<!-- Created with Inkscape (http://www.inkscape.org/) -->

<svg
   xmlns:dc="http://purl.org/dc/elements/1.1/"
   xmlns:cc="http://creativecommons.org/ns#"
   xmlns:rdf="http://www.w3.org/1999/02/22-rdf-syntax-ns#"
   xmlns:svg="http://www.w3.org/2000/svg"
   xmlns="http://www.w3.org/2000/svg"
   xmlns:sodipodi="http://sodipodi.sourceforge.net/DTD/sodipodi-0.dtd"
   xmlns:inkscape="http://www.inkscape.org/namespaces/inkscape"
   width="210mm"
   height="297mm"
   viewBox="0 0 210 297"
   version="1.1"
   id="svg8"
   inkscape:version="0.92.4 (5da689c313, 2019-01-14)"
   sodipodi:docname="tech_left.svg">
  <defs
     id="defs2" />
  <sodipodi:namedview
     id="base"
     pagecolor="#ffffff"
     bordercolor="#666666"
     borderopacity="1.0"
     inkscape:pageopacity="0.0"
     inkscape:pageshadow="2"
     inkscape:zoom="1.5011719"
     inkscape:cx="288.75358"
     inkscape:cy="560"
     inkscape:document-units="mm"
     inkscape:current-layer="layer1"
     showgrid="false"
     inkscape:window-width="2400"
     inkscape:window-height="1271"
     inkscape:window-x="-9"
     inkscape:window-y="-9"
     inkscape:window-maximized="1" />
  <metadata
     id="metadata5">
    <rdf:RDF>
      <cc:Work
         rdf:about="">
        <dc:format>image/svg+xml</dc:format>
        <dc:type
           rdf:resource="http://purl.org/dc/dcmitype/StillImage" />
        <dc:title></dc:title>
      </cc:Work>
    </rdf:RDF>
  </metadata>
  <g
     inkscape:label="Layer 1"
     inkscape:groupmode="layer"
     id="layer1">
    <path
       style="fill:rgb(0, 170, 248);stroke-width:0.26458332;fill-opacity:1"
       d="m 79.24167,184.40129 c -0.739095,-0.19418 -46.33519,-36.27452 -46.839094,-37.06392 -0.586646,-0.91903 -0.586646,-1.85025 0,-2.76928 0.60248,-0.94384 46.147627,-36.86756 47.019064,-37.08628 0.983681,-0.24688 2.417884,0.45895 2.92495,1.43951 0.377555,0.73011 0.432813,1.81777 0.404317,7.95834 l -0.03301,7.11265 h 24.816373 24.81636 l 0.62871,-1.37046 c 1.70509,-3.71675 6.45418,-6.24723 10.34109,-5.51009 4.0307,0.7644 6.94817,3.34617 8.05375,7.12701 0.55217,1.8883 0.53101,3.58378 -0.0688,5.5109 -1.155,3.71104 -4.05126,6.21474 -8.04266,6.9526 -3.86175,0.71388 -8.58767,-1.82232 -10.2834,-5.51866 l -0.62871,-1.37046 h -26.26994 c -28.333914,0 -27.615944,0.0345 -28.414467,-1.36667 -0.251362,-0.44107 -0.389855,-2.30108 -0.484317,-6.50451 l -0.132292,-5.88681 -18.785415,14.83254 c -10.331979,8.15789 -18.785416,14.93518 -18.785416,15.06065 0,0.12546 8.453437,6.90167 18.785416,15.05823 l 18.785415,14.83011 0.132292,-5.88 c 0.09444,-4.19774 0.233005,-6.05673 0.484317,-6.49772 0.803566,-1.41004 -0.209751,-1.36666 31.925197,-1.36666 h 29.78067 l 0.26868,-0.7276 c 1.69175,-4.58134 5.50684,-7.8222 10.03248,-8.52245 7.12801,-1.10291 14.01447,4.87252 14.01447,12.16047 0,7.28794 -6.88646,13.26337 -14.01447,12.16046 -4.52564,-0.70024 -8.34073,-3.94111 -10.03248,-8.52244 l -0.26868,-0.72761 H 111.05512 82.73816 v 7.15689 c 0,7.99836 -0.0853,8.44911 -1.728867,9.13583 -0.928418,0.38792 -1.003403,0.39621 -1.767623,0.19543 z m 74.76329,-13.14776 c 1.24596,-0.52059 2.75498,-1.92453 3.4213,-3.18304 0.44111,-0.83317 0.57359,-1.5417 0.57359,-3.06776 0,-1.52606 -0.13248,-2.2346 -0.57359,-3.06776 -0.66632,-1.25852 -2.17534,-2.66245 -3.4213,-3.18305 -1.12116,-0.46845 -4.0937,-0.46845 -5.21486,0 -1.24596,0.5206 -2.75498,1.92453 -3.4213,3.18305 -0.80927,1.52854 -0.80927,4.60698 0,6.13552 0.64949,1.22672 2.15306,2.64497 3.36233,3.17153 1.06872,0.46535 4.17143,0.47213 5.27383,0.0115 z m -9.88078,-40.71278 c 1.50239,-1.02252 1.98168,-1.90242 1.98168,-3.63802 0,-1.15694 -0.14001,-1.73766 -0.55349,-2.2957 -1.94685,-2.62751 -5.41282,-2.62751 -7.35968,0 -0.41348,0.55804 -0.55349,1.13876 -0.55349,2.2957 0,1.7356 0.4793,2.6155 1.98168,3.63802 0.63041,0.42905 1.25926,0.59531 2.25165,0.59531 0.9924,0 1.62124,-0.16626 2.25165,-0.59531 z m -20.59355,24.13233 c -3.06098,-0.62279 -6.01577,-2.87276 -7.22004,-5.4978 l -0.62871,-1.37047 H 97.746313 c -19.657054,0 -19.33371,0.0249 -20.149954,-1.55352 -0.523492,-1.01232 -0.523492,-1.70148 0,-2.71379 0.816244,-1.57845 0.4929,-1.55352 20.149954,-1.55352 h 17.935567 l 0.58551,-1.27629 c 1.75351,-3.8223 6.38749,-6.34102 10.3266,-5.61283 3.9914,0.73785 6.88766,3.24156 8.04266,6.95259 1.84933,5.94189 -2.28899,12.03316 -8.63912,12.71611 -0.7276,0.0782 -1.83771,0.0375 -2.4669,-0.0905 z m 3.9248,-6.14066 c 1.50239,-1.02252 1.98169,-1.90242 1.98169,-3.63803 0,-1.15693 -0.14002,-1.73765 -0.5535,-2.2957 -1.94685,-2.62751 -5.41282,-2.62751 -7.35968,0 -0.41348,0.55805 -0.55349,1.13877 -0.55349,2.2957 0,1.73561 0.4793,2.61551 1.98168,3.63803 0.63041,0.42905 1.25926,0.59531 2.25165,0.59531 0.9924,0 1.62124,-0.16626 2.25165,-0.59531 z"
       id="path826"
       inkscape:connector-curvature="0" />
  </g>
</svg>
